{"title":"Mothra vs Godzilla) (1964) - BDRip x264 (Eng subs) - [=Faith=]","uid":13859652,"size":1343679699,"categoryP":"video","categoryS":"movies","magnet":"?xt=urn:btih:7a031eb41f0ea5bf976c5745a6d86cc199d6ea12&amp;dn=Mothra+vs+Godzilla%29+%281964%29+-+BDRip+x264+%28Eng+subs%29+-+%5B%3DFaith%3D%5D&amp;tr=udp%3A%2F%2Ftracker.leechers-paradise.org%3A6969&amp;tr=udp%3A%2F%2Fzer0day.ch%3A1337&amp;tr=udp%3A%2F%2Fopen.demonii.com%3A1337&amp;tr=udp%3A%2F%2Ftracker.coppersurfer.tk%3A6969&amp;tr=udp%3A%2F%2Fexodus.desync.com%3A6969","seeders":1,"leechers":2,"uploader":"Faithwyn","files":9,"time":1458021610,"description":"Mosura Tai Gojira - Mothra vs Godzilla 1964\r\n\r\n\r\nAfter a storm, a giant egg washes up on the beach nearby\r\nand is immediately put on public display. The developer's\r\nplans go awry when he disrupts Godzilla's rest and the monster\r\ngoes stomping through Tokyo again. It's up to the elderly Mothra,\r\nand then to its two offspring, to save Tokyo from destruction.\r\n\r\n\r\nThe Film:\r\n\r\nTitle:\r\nDirected by: IshirÅ Honda\r\nProduced by: Tomoyuki Tanaka\r\nWritten by: Shinichi Sekizawa\r\nStarring:\r\nAkira Takarada\r\nYuriko Hoshi\r\nHiroshi Koizumi\r\nYu Fujiki\r\nEmi ItÅ\r\nYumi ItÅ\r\nKenji Sahara\r\nJun Tazaki\r\nYoshifumi Tajima\r\nMusic by: Akira Ifukube\r\nCinematography: Hajime Koizumi\r\nProduction: Toho\r\nDistributed by: Toho (Japan)\r\nAmerican International Pictures (USA)\r\nRelease dates: April 29, 1964\r\nRunning time: 88 minutes\r\nCountry: Japan\r\nLanguage: Japanese\r\nSubtitles: English\r\nIMDB Rating: 6.5\r\n\r\n\r\nGeneral:\r\n\r\nComplete name : Mosura Tai Gojira (1964).mkv\r\nFormat : Matroska\r\nFormat version : Version 2\r\nFile size : 1.25 GiB\r\nDuration : 1h 28mn\r\nOverall bit rate : 2 020 Kbps\r\nWriting application : HandBrake 0.9.9\r\nWriting library : libmkv 0.6.5\r\n\r\n\r\nVideo:\r\n\r\nID : 1\r\nFormat : AVC\r\nFormat/Info : Advanced Video Codec\r\nFormat profile :   \r\nFormat settings, CABAC : Yes\r\nFormat settings, ReFrames : 8 frames\r\nCodec ID : V_MPEG4/ISO/AVC\r\nDuration : 1hr 28min\r\nBit rate : 1788 Kbps\r\nWidth : 1280 pixels\r\nHeight : 528 pixels\r\nDisplay aspect ratio : 2.40:1\r\nFrame rate mode : Constant\r\nFrame rate : 23.976 fps\r\nColor space : YUV\r\nChroma subsampling : 4:2:0\r\nBit depth : 8 bits\r\nScan type : Progressive\r\nBits/(Pixel*Frame) : 0.110\r\nStream size : 1.11 GiB (89%)\r\nWriting library : x264 core 130 r2273 b3065e6\r\nEncoding settings : (see .nfo file for details)\r\n\r\n\r\nAudio:\r\n\r\nID : 2\r\nFormat : AC-3\r\nFormat/Info : Audio Coding 3\r\nMode extension : CM (complete main)\r\nFormat settings, Endianness : Big\r\nCodec ID : A_AC3\r\nDuration : 1hr 28min\r\nBit rate mode : Constant\r\nBit rate : 192 Kbps\r\nChannel(s) : 2 channels\r\nChannel positions : Front: L R\r\nSampling rate : 48.0 KHz\r\nBit depth : 16 bits\r\nCompression mode : Lossy\r\nStream size : 122 MiB (10%)\r\nLanguage : Japanese\r\nDefault : Yes\r\nForced : No\r\n\r\n\r\n&quot;Mothra vs. Godzilla&quot; ( ãƒ¢ã‚¹ãƒ©å¯¾ã‚´ã‚¸ãƒ©  Mosura tai Gojira ) is a 1964 Japanese \r\nscience fiction Kaiju film produced by Toho. Directed by IshirÅ Honda, and \r\nfeaturing special effects by Eiji Tsuburaya, the film starred Akira Takarada, \r\nKenji Sahara and Hiroshi Koizumi. The fourth film in the Godzilla series, \r\nit was the first in which Toho began bringing in monsters from other productions, \r\nhaving Godzilla cross paths with Mothra. This trend would continue later in the \r\nsame year with Rodan, in Ghidorah, the Three-Headed Monster.\r\nThe film was released theatrically in English language territories in the summer \r\nof 1964(four months after its Japanese debut) by American International Pictures \r\nas &quot;Godzilla vs. The Thing&quot;","torrent":{"xt":"urn:btih:7a031eb41f0ea5bf976c5745a6d86cc199d6ea12","amp;dn":"Mothra+vs+Godzilla%29+%281964%29+-+BDRip+x264+%28Eng+subs%29+-+%5B%3DFaith%3D%5D","amp;tr":["udp%3A%2F%2Ftracker.leechers-paradise.org%3A6969","udp%3A%2F%2Fzer0day.ch%3A1337","udp%3A%2F%2Fopen.demonii.com%3A1337","udp%3A%2F%2Ftracker.coppersurfer.tk%3A6969","udp%3A%2F%2Fexodus.desync.com%3A6969"],"infoHash":"7a031eb41f0ea5bf976c5745a6d86cc199d6ea12","infoHashBuffer":{"type":"Buffer","data":[122,3,30,180,31,14,165,191,151,108,87,69,166,216,108,193,153,214,234,18]},"announce":[],"urlList":[]}}